<?xml version="1.0" standalone="no"?>
<!DOCTYPE svg PUBLIC "-//W3C//DTD SVG 20010904//EN"
 "http://www.w3.org/TR/2001/REC-SVG-20010904/DTD/svg10.dtd">
<svg version="1.0" xmlns="http://www.w3.org/2000/svg"
 width="1123.000000pt" height="1123.000000pt" viewBox="0 0 1123.000000 1123.000000"
 preserveAspectRatio="xMidYMid meet">
<metadata>
Created by potrace 1.14, written by Peter Selinger 2001-2017
</metadata>
<g transform="translate(0.000000,1123.000000) scale(0.100000,-0.100000)"
fill="#000000" stroke="none">
<path d="M2620 7835 c-1 -27 -1 -594 0 -670 l0 -60 84 -1 c93 -1 135 -15 177
-61 58 -62 60 -72 64 -333 2 -118 5 -222 7 -230 9 -34 49 -86 80 -105 30 -18
52 -20 233 -21 205 -1 230 3 273 40 39 34 54 75 58 155 3 42 6 82 9 89 2 6 -1
12 -7 12 -7 0 -7 4 1 13 6 8 8 17 4 20 -8 9 -10 127 -1 127 3 0 3 12 -1 27 -9
33 5 116 26 157 23 44 84 95 123 103 19 3 62 7 95 7 33 1 65 4 70 8 7 4 11
130 10 375 l0 368 -652 0 c-646 0 -653 0 -653 -20z"/>
<path d="M4422 7844 c-114 -34 -196 -123 -235 -254 -10 -35 -12 -147 -11 -485
1 -242 4 -453 7 -470 14 -78 78 -181 140 -224 83 -57 94 -58 516 -57 369 1
388 2 432 22 84 39 153 115 185 207 14 38 27 117 25 145 0 6 -1 23 -1 37 0 14
0 43 0 65 0 57 0 59 0 120 0 30 0 62 -1 70 0 8 0 107 1 220 1 244 -4 335 -19
375 -25 62 -36 85 -43 85 -5 0 -8 5 -8 11 0 31 -95 106 -165 129 -52 18 -767
21 -823 4z"/>
<path d="M5730 7104 l0 -751 650 0 c358 0 650 2 650 4 0 2 -24 29 -54 61 -30
31 -76 80 -103 109 -109 116 -290 310 -318 340 -82 87 -100 131 -100 243 0 65
4 92 18 113 9 15 15 27 11 27 -8 0 45 65 108 132 29 31 103 109 163 174 61 64
130 139 155 165 104 110 120 127 120 131 0 2 -292 3 -650 3 l-650 0 0 -751z"/>
<path d="M7709 7848 c-42 -16 -89 -58 -110 -99 -18 -37 -57 -198 -104 -434 -2
-11 -4 -21 -6 -22 -2 -4 -5 -13 -13 -58 -5 -22 -23 -108 -42 -191 -18 -83 -36
-164 -38 -180 -10 -51 -15 -75 -20 -92 -3 -9 -8 -35 -12 -56 -3 -22 -10 -50
-15 -63 -5 -13 -8 -27 -8 -31 1 -4 0 -9 -1 -12 -2 -7 -7 -29 -14 -68 -4 -18
-13 -61 -21 -95 -8 -34 -15 -69 -15 -78 0 -14 64 -16 650 -16 358 0 650 3 650
6 0 3 -4 22 -9 41 -6 19 -12 49 -14 65 -3 17 -9 48 -15 70 -6 22 -14 54 -16
70 -6 30 -8 40 -27 125 -5 25 -12 59 -15 75 -3 17 -12 54 -20 83 -7 30 -13 57
-12 60 1 4 -1 14 -5 22 -3 8 -8 29 -10 45 -6 38 -16 85 -23 107 -3 10 -7 30
-10 45 -3 16 -12 57 -20 93 -13 56 -38 176 -50 233 -2 10 -5 26 -8 35 -3 9 -8
29 -11 45 -3 15 -7 39 -10 55 -23 112 -57 170 -119 203 -38 21 -55 22 -253 24
-116 0 -222 -3 -234 -7z"/>
<path d="M3060 5506 c-41 -18 -64 -39 -90 -80 -23 -37 -23 -46 -25 -265 -1
-149 -5 -233 -13 -247 -6 -12 -9 -23 -7 -26 9 -8 -67 -88 -98 -105 -21 -10
-60 -16 -114 -17 -45 -1 -85 -5 -88 -8 -5 -5 -8 -439 -5 -699 l0 -46 649 0
c587 0 650 1 653 16 3 9 4 178 4 376 l-1 360 -80 0 c-44 1 -91 5 -105 9 -87
29 -147 131 -141 244 2 48 2 64 -1 97 -2 17 0 38 5 48 4 9 4 17 0 17 -5 0 -7
26 -5 58 4 84 4 85 -3 117 -18 87 -50 132 -106 151 -38 12 -400 12 -429 0z"/>
<path d="M4408 5499 c-109 -36 -195 -136 -224 -259 -12 -49 -11 -892 1 -946
30 -133 134 -250 245 -273 14 -3 201 -6 415 -6 l390 0 56 32 c113 66 177 168
185 298 2 33 4 62 5 65 0 3 0 37 0 75 -2 95 -1 169 4 173 2 2 -1 17 -5 33 -5
16 -6 29 -2 29 11 0 4 459 -8 514 -29 134 -126 245 -240 272 -19 4 -201 8
-405 9 -314 0 -376 -2 -417 -16z"/>
<path d="M5734 5505 c-2 -5 -3 -343 -2 -750 l3 -740 648 -1 c356 0 647 1 647
2 0 4 -50 58 -140 153 -25 27 -95 102 -157 167 -61 65 -137 146 -168 179 -80
85 -113 157 -113 247 1 107 25 158 133 273 21 22 88 94 150 160 63 66 151 160
197 209 46 48 86 93 90 100 5 9 -147 12 -639 12 -432 0 -647 -4 -649 -11z"/>
<path d="M7290 5504 c0 -11 22 -120 36 -179 3 -11 7 -31 10 -45 3 -14 7 -32 9
-40 2 -8 7 -31 10 -50 3 -19 12 -60 19 -90 8 -30 17 -73 22 -95 4 -22 9 -47
11 -55 2 -8 5 -24 7 -35 2 -11 6 -27 9 -35 2 -8 10 -40 16 -70 12 -58 18 -85
26 -122 3 -13 8 -36 11 -52 2 -16 6 -32 8 -35 2 -3 7 -23 10 -43 3 -21 11 -59
17 -85 6 -27 13 -57 14 -68 2 -11 8 -40 15 -65 7 -25 14 -55 16 -67 2 -13 6
-33 8 -45 16 -95 67 -173 128 -199 25 -11 85 -14 243 -13 116 1 219 4 230 7
11 3 23 6 28 6 11 1 98 94 92 99 -2 3 0 12 5 22 10 20 23 74 24 108 1 12 3 22
6 22 3 0 6 8 7 18 1 9 18 87 38 172 19 85 37 166 39 180 2 14 9 48 15 75 7 28
14 65 17 84 2 18 7 37 10 42 3 5 7 19 9 31 3 13 11 55 19 93 9 39 17 81 20 95
2 14 10 48 16 75 6 28 14 61 16 74 3 12 12 53 20 90 9 36 18 77 21 91 2 14 8
43 13 65 5 22 7 42 4 45 -3 3 -296 5 -650 5 -501 1 -644 -2 -644 -11z"/>
</g>
</svg>
