<?xml version="1.0" standalone="no"?>
<!DOCTYPE svg PUBLIC "-//W3C//DTD SVG 20010904//EN"
 "http://www.w3.org/TR/2001/REC-SVG-20010904/DTD/svg10.dtd">
<svg version="1.0" xmlns="http://www.w3.org/2000/svg"
 width="1056.000000pt" height="1056.000000pt" viewBox="0 0 1056.000000 1056.000000"
 preserveAspectRatio="xMidYMid meet">
<metadata>
Created by potrace 1.14, written by Peter Selinger 2001-2017
</metadata>
<g transform="translate(0.000000,1056.000000) scale(0.100000,-0.100000)"
fill="#000000" stroke="none">
<path d="M2825 9020 c-505 -34 -964 -350 -1180 -813 -49 -106 -76 -182 -107
-304 l-22 -88 -3 -2490 c-4 -2715 -7 -2566 52 -2770 156 -539 628 -942 1187
-1015 104 -13 4898 -13 5006 0 542 68 998 444 1171 965 76 232 71 23 71 2770
0 2218 -2 2471 -16 2556 -45 263 -156 499 -329 702 -244 286 -592 459 -985
487 -148 11 -4683 11 -4845 0z m2767 -1380 c83 -25 170 -82 231 -150 87 -96
127 -203 127 -335 0 -139 -45 -250 -142 -351 -157 -164 -395 -202 -603 -96
-65 32 -175 143 -209 209 -75 149 -75 334 2 477 34 66 143 174 208 208 112 60
267 75 386 38z m1533 -806 c59 -7 136 -46 172 -87 75 -86 71 -229 -14 -409
-64 -138 -114 -166 -268 -148 -109 12 -155 28 -179 61 -33 47 -18 106 50 200
73 101 102 199 68 233 -45 45 -140 34 -480 -58 -153 -41 -319 -85 -369 -97
-165 -40 -271 -118 -313 -230 -40 -107 -106 -481 -147 -834 -22 -191 -21 -211
16 -247 l30 -31 87 9 c165 16 262 12 314 -14 71 -35 93 -77 92 -177 -1 -94
-27 -172 -111 -336 -83 -163 -69 -201 62 -173 33 8 110 21 170 30 117 18 176
11 210 -22 35 -36 9 -113 -75 -219 -113 -142 -434 -431 -750 -674 -178 -138
-189 -148 -216 -206 -29 -61 -30 -113 -4 -165 24 -48 59 -73 146 -106 255 -96
545 -65 834 88 201 107 399 263 592 470 222 237 212 228 247 228 49 0 61 -40
61 -199 0 -154 -10 -212 -56 -307 -47 -99 -108 -160 -234 -230 -369 -205 -778
-310 -1133 -290 -298 17 -525 86 -837 256 -421 230 -779 327 -1099 300 -267
-24 -461 -110 -664 -297 -71 -66 -96 -83 -116 -81 -45 5 -51 35 -51 253 0 224
7 251 71 312 64 60 87 64 343 64 404 0 644 -42 1006 -179 295 -110 400 -129
543 -98 215 48 529 270 894 631 207 206 258 285 202 316 -29 15 -96 6 -292
-42 -224 -54 -331 -52 -391 7 -78 78 -29 224 161 485 110 151 158 235 147 263
-11 30 -91 19 -280 -38 -209 -63 -272 -76 -369 -76 -156 0 -257 97 -317 307
-21 70 -23 100 -23 288 0 171 4 239 24 366 13 86 21 169 17 184 -11 45 -50 75
-96 75 -22 0 -187 -36 -368 -81 -446 -110 -443 -109 -652 -116 -282 -8 -420
23 -524 118 -64 59 -86 111 -86 209 0 135 54 263 155 366 69 70 125 94 220 94
81 0 163 -22 244 -67 84 -46 101 -61 101 -88 0 -26 -26 -50 -103 -96 -87 -51
-185 -135 -218 -187 -39 -62 -39 -110 0 -154 28 -32 32 -33 121 -37 140 -5
342 22 715 95 441 87 1191 265 1865 445 595 158 650 168 855 143z"/>
</g>
</svg>
