<?xml version="1.0" standalone="no"?>
<!DOCTYPE svg PUBLIC "-//W3C//DTD SVG 20010904//EN"
 "http://www.w3.org/TR/2001/REC-SVG-20010904/DTD/svg10.dtd">
<svg version="1.0" xmlns="http://www.w3.org/2000/svg"
 width="1123.000000pt" height="1123.000000pt" viewBox="0 0 1123.000000 1123.000000"
 preserveAspectRatio="xMidYMid meet">
<metadata>
Created by potrace 1.14, written by Peter Selinger 2001-2017
</metadata>
<g transform="translate(0.000000,1123.000000) scale(0.100000,-0.100000)"
fill="#000000" stroke="none">
<path d="M3100 6633 l0 -263 43 -1 c82 -1 120 -9 153 -31 54 -37 67 -85 68
-256 2 -154 5 -169 51 -212 26 -25 29 -25 206 -26 164 -1 181 1 207 19 55 39
62 64 62 227 0 158 8 196 52 237 33 31 64 40 136 41 35 0 66 2 68 5 3 3 7 393
4 502 0 20 -6 20 -525 20 l-525 0 0 -262z"/>
<path d="M4565 6889 c-82 -17 -147 -66 -186 -140 -23 -43 -23 -50 -25 -372 -1
-318 -1 -328 21 -375 36 -78 90 -125 170 -150 49 -15 642 -9 692 7 41 14 123
80 123 99 0 6 4 12 10 14 27 9 35 110 34 409 -1 167 -4 314 -7 326 -18 70 -99
154 -169 174 -46 13 -607 20 -663 8z"/>
<path d="M5609 6885 c-1 -5 -2 -242 -3 -526 l-1 -516 523 0 c287 0 522 2 522
4 0 2 -25 27 -56 56 -31 28 -80 75 -109 102 -29 28 -88 82 -130 120 -140 126
-162 157 -166 230 -3 48 9 105 22 105 5 0 9 6 9 13 0 15 94 105 389 375 22 20
41 40 41 42 0 10 -1040 5 -1041 -5z"/>
<path d="M7187 6882 c-56 -23 -90 -66 -100 -127 -3 -17 -19 -84 -37 -150 -17
-66 -32 -129 -35 -140 -2 -11 -4 -20 -5 -20 -1 0 -3 -7 -5 -15 -2 -8 -17 -71
-35 -140 -17 -69 -33 -132 -35 -140 -2 -8 -15 -60 -28 -114 -14 -55 -24 -103
-21 -108 3 -4 1 -8 -3 -8 -5 0 -10 -8 -11 -17 -1 -10 -3 -27 -4 -38 -3 -20 3
-20 520 -21 287 0 522 3 522 7 0 4 -7 34 -16 66 -9 32 -20 74 -24 93 -8 34
-38 154 -58 233 -6 20 -8 37 -5 37 3 0 0 7 -7 15 -7 8 -10 15 -7 15 3 0 1 15
-5 33 -5 17 -14 48 -18 67 -8 34 -15 61 -25 98 -7 26 -26 105 -30 122 -2 8 -8
35 -15 60 -7 25 -13 52 -15 60 -12 60 -42 103 -90 128 -40 21 -360 24 -408 4z"/>
<path d="M3444 5735 c-16 -7 -40 -25 -54 -39 -23 -26 -25 -33 -27 -179 -2 -84
-4 -161 -5 -173 -5 -33 -48 -89 -82 -104 -39 -18 -34 -17 -111 -19 l-66 -1 1
-57 c0 -32 0 -88 0 -125 1 -38 1 -76 1 -85 0 -10 0 -70 0 -133 0 -63 2 -117 5
-120 3 -3 239 -5 525 -5 l519 0 1 30 c3 96 1 487 -3 490 -2 2 -34 5 -71 6 -80
3 -136 27 -163 73 -16 26 -20 58 -24 201 -5 181 -11 201 -65 236 -28 19 -339
22 -381 4z"/>
<path d="M4537 5735 c-88 -30 -153 -98 -174 -181 -6 -24 -10 -169 -9 -350 1
-290 3 -312 22 -354 26 -58 77 -108 134 -134 42 -19 64 -20 365 -20 286 -1
325 1 368 17 26 10 47 23 47 28 0 5 5 9 10 9 17 0 48 37 77 92 l28 53 0 317
c1 286 -1 323 -18 367 -21 57 -71 112 -131 144 -39 21 -54 21 -362 23 -227 1
-332 -2 -357 -11z"/>
<path d="M5608 5736 c-2 -6 -3 -243 -3 -526 l1 -515 514 -1 c283 0 519 1 523
4 4 2 -7 18 -26 35 -19 18 -63 59 -99 92 -319 296 -324 302 -329 382 -5 75 15
114 104 199 70 67 223 209 330 306 15 14 27 27 27 30 0 3 -234 5 -520 5 -368
0 -520 -3 -522 -11z"/>
<path d="M6865 5721 c4 -14 9 -33 11 -41 10 -43 36 -147 39 -160 3 -8 9 -33
15 -55 6 -22 13 -53 16 -70 3 -16 9 -41 14 -55 7 -20 30 -111 35 -140 1 -3 5
-16 10 -30 4 -14 9 -34 10 -45 1 -11 5 -27 8 -35 4 -8 8 -26 10 -40 2 -14 6
-32 9 -40 6 -16 27 -95 32 -120 14 -74 37 -129 65 -154 39 -35 85 -42 265 -41
174 2 175 2 211 29 20 16 43 42 51 59 10 24 107 396 129 497 2 8 28 114 58
235 31 120 54 222 52 225 -2 4 -239 7 -525 7 l-521 -1 6 -25z"/>
</g>
</svg>
